<svg id="btn_ig" xmlns="http://www.w3.org/2000/svg" viewBox="0 0 16.583 16.57">
  <g id="Group_26" data-name="Group 26" transform="translate(6.47 6.457)">
    <g id="Group_25" data-name="Group 25">
      <path id="Path_6" data-name="Path 6" d="M200.088,197.363a1.8,1.8,0,0,0-2.946,0,1.868,1.868,0,0,0-.342,1.065,1.815,1.815,0,1,0,3.63,0A1.869,1.869,0,0,0,200.088,197.363Z" transform="translate(-196.8 -196.6)"/>
    </g>
  </g>
  <g id="Group_28" data-name="Group 28" transform="translate(4.077 7.233)">
    <g id="Group_27" data-name="Group 27">
      <path id="Path_7" data-name="Path 7" d="M130.825,220.2a2.586,2.586,0,0,1,.21,1.052,2.827,2.827,0,0,1-5.655,0,2.54,2.54,0,0,1,.21-1.052H124v4.221a1.068,1.068,0,0,0,1.039,1.039h6.339a1.068,1.068,0,0,0,1.039-1.039V220.2Z" transform="translate(-124 -220.2)"/>
    </g>
  </g>
  <g id="Group_30" data-name="Group 30" transform="translate(10.494 4.3)">
    <g id="Group_29" data-name="Group 29">
      <path id="Path_8" data-name="Path 8" d="M320.726,131.013H319.2v1.749h1.736V131Z" transform="translate(-319.2 -131)"/>
    </g>
  </g>
  <g id="Group_32" data-name="Group 32" transform="translate(0 0)">
    <g id="Group_31" data-name="Group 31">
      <path id="Path_9" data-name="Path 9" d="M12.415.2H4.156A4.165,4.165,0,0,0,0,4.356v8.272A4.162,4.162,0,0,0,4.156,16.77h8.272a4.165,4.165,0,0,0,4.156-4.156V4.356A4.184,4.184,0,0,0,12.415.2Zm1,7.22h0v4.235a1.931,1.931,0,0,1-1.959,1.959H5.116a1.931,1.931,0,0,1-1.959-1.959V5.316A1.931,1.931,0,0,1,5.116,3.356h6.339a1.931,1.931,0,0,1,1.959,1.959Z" transform="translate(0 -0.2)"/>
    </g>
  </g>
</svg>
