<svg id="btn_facebook" xmlns="http://www.w3.org/2000/svg" viewBox="0 0 16.57 16.57">
  <g id="Group_17" data-name="Group 17">
    <g id="Group_16" data-name="Group 16">
      <path id="Path_1" data-name="Path 1" d="M13.463,0H3.107A3.107,3.107,0,0,0,0,3.107V13.463A3.107,3.107,0,0,0,3.107,16.57H13.463a3.107,3.107,0,0,0,3.107-3.107V3.107A3.107,3.107,0,0,0,13.463,0ZM10.427,8.284H9.069v4.971H7.2V8.285H5.962V6.572H7.2l0-1.009c0-1.4.379-2.248,2.025-2.248H10.6V5.028H9.741c-.641,0-.672.239-.672.686l0,.858h1.541Z"/>
    </g>
  </g>
</svg>
