<?xml version="1.0" encoding="utf-8"?>
<!-- Generator: Adobe Illustrator 22.1.0, SVG Export Plug-In . SVG Version: 6.00 Build 0)  -->
<svg version="1.1" id="圖層_1" xmlns="http://www.w3.org/2000/svg" xmlns:xlink="http://www.w3.org/1999/xlink" x="0px" y="0px"
	 viewBox="0 0 16 16" style="enable-background:new 0 0 16 16;" xml:space="preserve">
<style type="text/css">
	.st0{fill:#FFFFFF;}
</style>
<g id="btn_Instagram" transform="translate(-1249 -844)">
	<path id="Path_3" class="st0" d="M1257,845.4c1.1,0,2.1,0,3.2,0.1c0.5,0,1,0.1,1.5,0.3c0.7,0.3,1.2,0.8,1.5,1.5
		c0.2,0.5,0.3,1,0.3,1.5c0,0.8,0.1,1.1,0.1,3.2c0,1.1,0,2.1-0.1,3.2c0,0.5-0.1,1-0.3,1.5c-0.3,0.7-0.8,1.2-1.5,1.5
		c-0.5,0.2-1,0.3-1.5,0.3c-0.8,0-1.1,0.1-3.2,0.1c-1.1,0-2.1,0-3.2-0.1c-0.5,0-1-0.1-1.5-0.3c-0.7-0.3-1.2-0.8-1.5-1.5
		c-0.2-0.5-0.3-1-0.3-1.5c0-0.8-0.1-1.1-0.1-3.2c0-1.1,0-2.1,0.1-3.2c0-0.5,0.1-1,0.3-1.5c0.2-0.3,0.4-0.6,0.6-0.9
		c0.2-0.3,0.5-0.5,0.9-0.6c0.5-0.2,1-0.3,1.5-0.3C1254.9,845.4,1255.9,845.4,1257,845.4 M1257,844c-1.1,0-2.2,0-3.3,0.1
		c-0.7,0-1.3,0.1-2,0.4c-0.5,0.2-1,0.5-1.4,0.9c-0.4,0.4-0.7,0.9-0.9,1.4c-0.3,0.6-0.4,1.3-0.4,2c-0.1,1.1-0.1,2.2-0.1,3.3
		c0,1.1,0,2.2,0.1,3.3c0,0.7,0.1,1.3,0.4,2c0.2,0.5,0.5,1,0.9,1.4c0.4,0.4,0.9,0.7,1.4,0.9c0.6,0.2,1.3,0.4,2,0.4
		c1.1,0.1,2.2,0.1,3.3,0.1c1.1,0,2.2,0,3.3-0.1c0.7,0,1.3-0.1,2-0.4c1.1-0.4,1.9-1.2,2.3-2.3c0.2-0.6,0.4-1.3,0.4-2
		c0-0.9,0.1-1.2,0.1-3.3c0-1.1,0-2.2-0.1-3.3c0-0.7-0.1-1.3-0.4-2c-0.2-0.5-0.5-1-0.9-1.4c-0.4-0.4-0.9-0.7-1.4-0.9
		c-0.6-0.2-1.3-0.4-2-0.4C1259.2,844,1258.1,844,1257,844 M1257,847.9c-2.2,0-4.1,1.7-4.1,4c0,0,0,0.1,0,0.1c0,2.3,1.8,4.1,4.1,4.1
		s4.1-1.8,4.1-4.1S1259.3,847.9,1257,847.9L1257,847.9 M1257,854.7c-1.4,0-2.6-1.1-2.7-2.6c0,0,0-0.1,0-0.1c0-1.4,1.1-2.6,2.6-2.7
		c0,0,0.1,0,0.1,0c1.4,0,2.6,1.1,2.7,2.6c0,0,0,0.1,0,0.1C1259.7,853.4,1258.5,854.6,1257,854.7C1257.1,854.7,1257,854.7,1257,854.7
		 M1261.3,846.8c-0.5,0-1,0.4-1,1c0,0.5,0.4,1,1,1s1-0.4,1-1l0,0C1262.2,847.2,1261.8,846.8,1261.3,846.8"/>
</g>
</svg>
