<svg id="btn_twitter" xmlns="http://www.w3.org/2000/svg" viewBox="0 0 16.57 16.57">
  <g id="Group_19" data-name="Group 19">
    <g id="Group_18" data-name="Group 18">
      <path id="Path_2" data-name="Path 2" d="M13.463,0H3.107A3.107,3.107,0,0,0,0,3.107V13.463A3.107,3.107,0,0,0,3.107,16.57H13.463a3.107,3.107,0,0,0,3.107-3.107V3.107A3.107,3.107,0,0,0,13.463,0ZM12.407,6.425l.006.264a5.8,5.8,0,0,1-8.93,4.887,4.2,4.2,0,0,0,.487.029A4.093,4.093,0,0,0,6.5,10.732,2.043,2.043,0,0,1,4.6,9.316a2.128,2.128,0,0,0,.384.035,2.04,2.04,0,0,0,.537-.07,2.042,2.042,0,0,1-1.636-2V7.255a2.037,2.037,0,0,0,.924.256,2.043,2.043,0,0,1-.632-2.723,5.789,5.789,0,0,0,4.2,2.131,2.041,2.041,0,0,1,3.477-1.86,4.131,4.131,0,0,0,1.3-.5,2.045,2.045,0,0,1-.9,1.129,4.089,4.089,0,0,0,1.171-.321A4.123,4.123,0,0,1,12.407,6.425Z"/>
    </g>
  </g>
</svg>
