<svg xmlns="http://www.w3.org/2000/svg" viewBox="0 0 105.38 60.51">
  <defs>
    <style>
      .cls-1 {
        fill: #fff;
      }
    </style>
  </defs>
  <g id="navbar_logo" transform="translate(-1.667)">
    <g id="Group_478" data-name="Group 478" transform="translate(6.918 24.813)">
      <path id="Path_261" data-name="Path 261" class="cls-1" d="M21.9,95.6v2.388H53.513A3.842,3.842,0,0,0,55.9,95.6Z" transform="translate(-21.9 -95.6)"/>
    </g>
    <g id="Group_479" data-name="Group 479" transform="translate(1.667 21.646)">
      <path id="Path_262" data-name="Path 262" class="cls-1" d="M19.376,83.4h4.542L2.324,109.1s-1.479-.26,0-4.75Z" transform="translate(-1.667 -83.4)"/>
    </g>
    <g id="Group_480" data-name="Group 480" transform="translate(22.647 27.678)">
      <path id="Path_263" data-name="Path 263" class="cls-1" d="M82.708,108.707,85.1,106.76A.563.563,0,0,1,86,107.2l-.467,31.717a.558.558,0,0,1-.857.467c-.545-.363-1.272-1.246-2.128-3.426a.506.506,0,0,1-.026-.208l-.026-26.63A.542.542,0,0,1,82.708,108.707Z" transform="translate(-82.5 -106.641)"/>
    </g>
    <g id="Group_481" data-name="Group 481" transform="translate(11.019 32.028)">
      <path id="Path_264" data-name="Path 264" class="cls-1" d="M37.7,147.538V126.67l2.725-3.27v13.938S40.529,139.129,37.7,147.538Z" transform="translate(-37.7 -123.4)"/>
    </g>
    <g id="Group_482" data-name="Group 482" transform="translate(11.616 32.028)">
      <path id="Path_265" data-name="Path 265" class="cls-1" d="M40.311,123.4H66.266v24.138l-7.371-7.06.857-.857,3.686,3.686V125.892H40Z" transform="translate(-40 -123.4)"/>
    </g>
    <g id="Group_507" data-name="Group 507" transform="translate(36.273)">
      <g id="Group_506" data-name="Group 506">
        <g id="Group_504" data-name="Group 504">
          <path id="Path_293" data-name="Path 293" class="cls-1" d="M139.283,8.539a4.27,4.27,0,1,1,4.283-4.257A4.287,4.287,0,0,1,139.283,8.539Zm0-7.76a3.5,3.5,0,1,0,3.5,3.5A3.506,3.506,0,0,0,139.283.779Z" transform="translate(-135)"/>
        </g>
        <g id="Group_505" data-name="Group 505" transform="translate(7.838 1.83)">
          <path id="Path_294" data-name="Path 294" class="cls-1" d="M165.2,9.788s4.023,1.376,5.736-2.362c0,0,.078-.986-.908.234a3.624,3.624,0,0,1-4.334.96" transform="translate(-165.2 -7.049)"/>
        </g>
      </g>
    </g>
    <g id="Group_563" data-name="Group 563" transform="translate(59.746 0)">
      <g id="Group_488" data-name="Group 488" transform="translate(21.707)">
        <g id="Group_487" data-name="Group 487">
          <g id="Group_483" data-name="Group 483" transform="translate(0.742 30.633)">
            <path id="Path_266" data-name="Path 266" class="cls-1" d="M81.5,407.8l8.716,7.023s-2.8,1.11-6.467-2.581-2.915-2.914-2.915-2.914" transform="translate(-80.772 -407.8)"/>
          </g>
          <g id="Group_484" data-name="Group 484" transform="translate(0.933 6.657)">
            <path id="Path_267" data-name="Path 267" class="cls-1" d="M82.611,332.521,96.1,321.668s-4.358-1.721-10.02,4-4.524,4.525-4.524,4.525" transform="translate(-81.463 -321.425)"/>
          </g>
          <g id="Group_485" data-name="Group 485">
            <path id="Path_268" data-name="Path 268" class="cls-1" d="M78.572,299.65l2.554-2.082a.6.6,0,0,1,.972.472l-.777,59.318a.6.6,0,0,1-.916.5c-.583-.389-1.36-1.332-2.276-3.664a.541.541,0,0,1-.028-.222l.25-53.85A.684.684,0,0,1,78.572,299.65Z" transform="translate(-78.1 -297.441)"/>
          </g>
          <g id="Group_486" data-name="Group 486" transform="translate(0.555 30.656)">
            <path id="Path_269" data-name="Path 269" class="cls-1" d="M87.706,412.744c.638.361,1.3.694,1.915,1.11.5.278,1.027.555,1.527.8-.888.167-3.359-.944-3.359-.944.278.555,7.633,4.58,7.633,4.58-3.5-.944-8.8-4.164-8.8-4.164.444.722,5,3.525,5,3.525-2.581-.86-4.913-2.665-7.078-4.3A22.051,22.051,0,0,1,80.1,408.72l.916-.833c.111-.083,1.055.888,1.166,1a24.158,24.158,0,0,0,2.11,1.665c.86.638,1.776,1.249,2.692,1.8C87.234,412.495,87.456,412.606,87.706,412.744Z" transform="translate(-80.1 -407.882)"/>
          </g>
        </g>
      </g>
      <g id="Group_558" data-name="Group 558" transform="translate(0 15.623)">
        <g id="Group_509" data-name="Group 509">
          <g id="Group_508" data-name="Group 508">
            <path id="Path_295" data-name="Path 295" class="cls-1" d="M23.575,353.67H40.7s5.44,0,5.524.25.056,5.94.056,5.94c.527-1,.916-5.468.916-5.468.028-1.749-.777-2.054-.777-2.054-.749-1.055-22.872-.8-22.872-.8s-22.095-.25-22.872.8c0,0-.8.333-.777,2.054,0,0,.416,4.469.916,5.468,0,0-.056-5.69.056-5.94.083-.25,5.524-.25,5.524-.25Z" transform="translate(0.103 -351.507)"/>
          </g>
        </g>
        <g id="Group_511" data-name="Group 511" transform="translate(1.361 1.441)">
          <g id="Group_510" data-name="Group 510">
            <path id="Path_296" data-name="Path 296" class="cls-1" d="M5.078,363.639a.278.278,0,0,1-.278-.278v-6.384a.278.278,0,0,1,.278-.278.262.262,0,0,1,.278.278v6.384A.3.3,0,0,1,5.078,363.639Z" transform="translate(-4.8 -356.7)"/>
          </g>
        </g>
        <g id="Group_513" data-name="Group 513" transform="translate(3.276 1.441)">
          <g id="Group_512" data-name="Group 512">
            <path id="Path_297" data-name="Path 297" class="cls-1" d="M11.978,363.639a.278.278,0,0,1-.278-.278v-6.384a.278.278,0,1,1,.555,0v6.384A.3.3,0,0,1,11.978,363.639Z" transform="translate(-11.7 -356.7)"/>
          </g>
        </g>
        <g id="Group_515" data-name="Group 515" transform="translate(5.191 1.441)">
          <g id="Group_514" data-name="Group 514">
            <path id="Path_298" data-name="Path 298" class="cls-1" d="M18.878,363.639a.278.278,0,0,1-.278-.278v-6.384a.278.278,0,0,1,.278-.278.262.262,0,0,1,.278.278v6.384A.3.3,0,0,1,18.878,363.639Z" transform="translate(-18.6 -356.7)"/>
          </g>
        </g>
        <g id="Group_517" data-name="Group 517" transform="translate(7.107 1.441)">
          <g id="Group_516" data-name="Group 516">
            <path id="Path_299" data-name="Path 299" class="cls-1" d="M25.778,363.639a.278.278,0,0,1-.278-.278v-6.384a.278.278,0,0,1,.278-.278.262.262,0,0,1,.278.278v6.384A.3.3,0,0,1,25.778,363.639Z" transform="translate(-25.5 -356.7)"/>
          </g>
        </g>
        <g id="Group_519" data-name="Group 519" transform="translate(9.022 1.441)">
          <g id="Group_518" data-name="Group 518">
            <path id="Path_300" data-name="Path 300" class="cls-1" d="M32.678,363.639a.278.278,0,0,1-.278-.278v-6.384a.278.278,0,1,1,.555,0v6.384A.3.3,0,0,1,32.678,363.639Z" transform="translate(-32.4 -356.7)"/>
          </g>
        </g>
        <g id="Group_521" data-name="Group 521" transform="translate(10.937 1.441)">
          <g id="Group_520" data-name="Group 520">
            <path id="Path_301" data-name="Path 301" class="cls-1" d="M39.578,363.639a.278.278,0,0,1-.278-.278v-6.384a.278.278,0,1,1,.555,0v6.384A.3.3,0,0,1,39.578,363.639Z" transform="translate(-39.3 -356.7)"/>
          </g>
        </g>
        <g id="Group_523" data-name="Group 523" transform="translate(12.852 1.441)">
          <g id="Group_522" data-name="Group 522">
            <path id="Path_302" data-name="Path 302" class="cls-1" d="M46.478,363.639a.278.278,0,0,1-.278-.278v-6.384a.278.278,0,1,1,.555,0v6.384A.3.3,0,0,1,46.478,363.639Z" transform="translate(-46.2 -356.7)"/>
          </g>
        </g>
        <g id="Group_525" data-name="Group 525" transform="translate(14.768 1.441)">
          <g id="Group_524" data-name="Group 524">
            <path id="Path_303" data-name="Path 303" class="cls-1" d="M53.378,363.639a.278.278,0,0,1-.278-.278v-6.384a.278.278,0,1,1,.555,0v6.384A.3.3,0,0,1,53.378,363.639Z" transform="translate(-53.1 -356.7)"/>
          </g>
        </g>
        <g id="Group_527" data-name="Group 527" transform="translate(16.683 1.441)">
          <g id="Group_526" data-name="Group 526">
            <path id="Path_304" data-name="Path 304" class="cls-1" d="M60.278,363.639a.278.278,0,0,1-.278-.278v-6.384a.278.278,0,1,1,.555,0v6.384A.3.3,0,0,1,60.278,363.639Z" transform="translate(-60 -356.7)"/>
          </g>
        </g>
        <g id="Group_529" data-name="Group 529" transform="translate(18.598 1.441)">
          <g id="Group_528" data-name="Group 528">
            <path id="Path_305" data-name="Path 305" class="cls-1" d="M67.178,363.639a.278.278,0,0,1-.278-.278v-6.384a.278.278,0,0,1,.278-.278.262.262,0,0,1,.278.278v6.384A.3.3,0,0,1,67.178,363.639Z" transform="translate(-66.9 -356.7)"/>
          </g>
        </g>
        <g id="Group_531" data-name="Group 531" transform="translate(20.513 1.441)">
          <g id="Group_530" data-name="Group 530">
            <path id="Path_306" data-name="Path 306" class="cls-1" d="M74.078,363.639a.278.278,0,0,1-.278-.278v-6.384a.278.278,0,0,1,.278-.278.262.262,0,0,1,.278.278v6.384A.3.3,0,0,1,74.078,363.639Z" transform="translate(-73.8 -356.7)"/>
          </g>
        </g>
        <g id="Group_533" data-name="Group 533" transform="translate(22.429 1.441)">
          <g id="Group_532" data-name="Group 532">
            <path id="Path_307" data-name="Path 307" class="cls-1" d="M80.978,363.639a.278.278,0,0,1-.278-.278v-6.384a.278.278,0,0,1,.278-.278.262.262,0,0,1,.278.278v6.384A.3.3,0,0,1,80.978,363.639Z" transform="translate(-80.7 -356.7)"/>
          </g>
        </g>
        <g id="Group_535" data-name="Group 535" transform="translate(24.344 1.441)">
          <g id="Group_534" data-name="Group 534">
            <path id="Path_308" data-name="Path 308" class="cls-1" d="M87.878,363.639a.278.278,0,0,1-.278-.278v-6.384a.278.278,0,0,1,.278-.278.262.262,0,0,1,.278.278v6.384A.3.3,0,0,1,87.878,363.639Z" transform="translate(-87.6 -356.7)"/>
          </g>
        </g>
        <g id="Group_537" data-name="Group 537" transform="translate(26.259 1.441)">
          <g id="Group_536" data-name="Group 536">
            <path id="Path_309" data-name="Path 309" class="cls-1" d="M94.778,363.639a.278.278,0,0,1-.278-.278v-6.384a.278.278,0,0,1,.278-.278.262.262,0,0,1,.278.278v6.384A.3.3,0,0,1,94.778,363.639Z" transform="translate(-94.5 -356.7)"/>
          </g>
        </g>
        <g id="Group_539" data-name="Group 539" transform="translate(28.175 1.441)">
          <g id="Group_538" data-name="Group 538">
            <path id="Path_310" data-name="Path 310" class="cls-1" d="M101.678,363.639a.278.278,0,0,1-.278-.278v-6.384a.278.278,0,0,1,.278-.278.262.262,0,0,1,.278.278v6.384A.3.3,0,0,1,101.678,363.639Z" transform="translate(-101.4 -356.7)"/>
          </g>
        </g>
        <g id="Group_541" data-name="Group 541" transform="translate(30.09 1.441)">
          <g id="Group_540" data-name="Group 540">
            <path id="Path_311" data-name="Path 311" class="cls-1" d="M108.578,363.639a.278.278,0,0,1-.278-.278v-6.384a.278.278,0,0,1,.278-.278.262.262,0,0,1,.278.278v6.384A.3.3,0,0,1,108.578,363.639Z" transform="translate(-108.3 -356.7)"/>
          </g>
        </g>
        <g id="Group_543" data-name="Group 543" transform="translate(32.005 1.441)">
          <g id="Group_542" data-name="Group 542">
            <path id="Path_312" data-name="Path 312" class="cls-1" d="M115.478,363.639a.278.278,0,0,1-.278-.278v-6.384a.278.278,0,0,1,.278-.278.262.262,0,0,1,.278.278v6.384A.3.3,0,0,1,115.478,363.639Z" transform="translate(-115.2 -356.7)"/>
          </g>
        </g>
        <g id="Group_545" data-name="Group 545" transform="translate(33.92 1.441)">
          <g id="Group_544" data-name="Group 544">
            <path id="Path_313" data-name="Path 313" class="cls-1" d="M122.378,363.639a.278.278,0,0,1-.278-.278v-6.384a.278.278,0,0,1,.278-.278.262.262,0,0,1,.278.278v6.384A.3.3,0,0,1,122.378,363.639Z" transform="translate(-122.1 -356.7)"/>
          </g>
        </g>
        <g id="Group_547" data-name="Group 547" transform="translate(35.836 1.441)">
          <g id="Group_546" data-name="Group 546">
            <path id="Path_314" data-name="Path 314" class="cls-1" d="M129.278,363.639a.278.278,0,0,1-.278-.278v-6.384a.278.278,0,0,1,.278-.278.262.262,0,0,1,.278.278v6.384A.3.3,0,0,1,129.278,363.639Z" transform="translate(-129 -356.7)"/>
          </g>
        </g>
        <g id="Group_549" data-name="Group 549" transform="translate(37.751 1.441)">
          <g id="Group_548" data-name="Group 548">
            <path id="Path_315" data-name="Path 315" class="cls-1" d="M136.178,363.639a.278.278,0,0,1-.278-.278v-6.384a.278.278,0,0,1,.278-.278.262.262,0,0,1,.278.278v6.384A.3.3,0,0,1,136.178,363.639Z" transform="translate(-135.9 -356.7)"/>
          </g>
        </g>
        <g id="Group_551" data-name="Group 551" transform="translate(39.666 1.441)">
          <g id="Group_550" data-name="Group 550">
            <path id="Path_316" data-name="Path 316" class="cls-1" d="M143.078,363.639a.278.278,0,0,1-.278-.278v-6.384a.278.278,0,0,1,.278-.278.262.262,0,0,1,.278.278v6.384A.3.3,0,0,1,143.078,363.639Z" transform="translate(-142.8 -356.7)"/>
          </g>
        </g>
        <g id="Group_553" data-name="Group 553" transform="translate(41.581 1.441)">
          <g id="Group_552" data-name="Group 552">
            <path id="Path_317" data-name="Path 317" class="cls-1" d="M149.978,363.639a.278.278,0,0,1-.278-.278v-6.384a.278.278,0,0,1,.278-.278.262.262,0,0,1,.278.278v6.384A.3.3,0,0,1,149.978,363.639Z" transform="translate(-149.7 -356.7)"/>
          </g>
        </g>
        <g id="Group_555" data-name="Group 555" transform="translate(43.497 1.441)">
          <g id="Group_554" data-name="Group 554">
            <path id="Path_318" data-name="Path 318" class="cls-1" d="M156.878,363.639a.278.278,0,0,1-.278-.278v-6.384a.278.278,0,0,1,.278-.278.262.262,0,0,1,.278.278v6.384A.3.3,0,0,1,156.878,363.639Z" transform="translate(-156.6 -356.7)"/>
          </g>
        </g>
        <g id="Group_557" data-name="Group 557" transform="translate(45.412 1.441)">
          <g id="Group_556" data-name="Group 556">
            <path id="Path_319" data-name="Path 319" class="cls-1" d="M163.778,363.639a.278.278,0,0,1-.278-.278v-6.384a.278.278,0,0,1,.278-.278.262.262,0,0,1,.278.278v6.384A.3.3,0,0,1,163.778,363.639Z" transform="translate(-163.5 -356.7)"/>
          </g>
        </g>
      </g>
    </g>
    <g id="Group_560" data-name="Group 560" transform="translate(6.451 4.387)">
      <g id="Group_559" data-name="Group 559">
        <path id="Path_320" data-name="Path 320" class="cls-1" d="M50.571,33.021l.363.13a3.5,3.5,0,0,1,6.463-.182,3.415,3.415,0,0,1,.078,2.673l.727.285a4.208,4.208,0,0,0-.1-3.27A4.335,4.335,0,0,0,55.71,30.4a4.283,4.283,0,0,0-4.568.986C49.9,30.555,36.581,21.678,30.17,18.512c-6.748-3.322-10.07-.467-10.07-.467L50.208,32.839Z" transform="translate(-20.1 -16.904)"/>
      </g>
      <path id="Path_321" data-name="Path 321" class="cls-1" d="M50.541,19.1,33.956,27.224l.311.6-.623.337-.311-.6-1.012.493.311.623-.623.311-.311-.623-1.012.493.311.623-.623.311-.311-.623-1.012.493.311.649-.623.311-.311-.649-1.012.493.311.649-.623.311-.311-.675-1.012.519.337.649-.623.311-.337-.675-1.012.493.337.675-.623.311-.337-.675-1.012.493.337.675-.623.337-.337-.675-1.687.831s3.322,2.855,10.07-.467S51.346,21.2,51.346,21.2Z" transform="translate(-20.174 -18.53)"/>
    </g>
  </g>
</svg>
