<svg xmlns="http://www.w3.org/2000/svg" viewBox="0 0 551.087 180.612">
  <defs>
    <style>
      .cls-1 {
        fill: #fff;
      }
    </style>
  </defs>
  <g id="text_logo" transform="translate(-0.091 -0.45)">
    <path id="Path_322" data-name="Path 322" class="cls-1" d="M80.327,28.6a20.025,20.025,0,0,1,2.028-1.352,2.265,2.265,0,0,0,1.014-2.7c-.338-2.028-2.7-4.057-7.437-5.747A24.9,24.9,0,0,0,73.9,20.49a2.567,2.567,0,0,0-1.014,3.043C73.565,25.561,75.932,27.59,80.327,28.6Z" transform="translate(173.007 43.685)"/>
    <path id="Path_323" data-name="Path 323" class="cls-1" d="M549.142,89.192l-3.381-2.028C529.2,77.022,511.278,67.894,491.67,64.175a86.874,86.874,0,0,0-58.147,8.114,94.979,94.979,0,0,0-23.665,17.917A135.524,135.524,0,0,0,391.6,113.533c-5.071,8.452-10.142,16.9-13.861,25.693l-1.352,3.381a12.008,12.008,0,0,1-1.352,3.043c-.338.338-.338.676-.676.676l-.338.338c-.676.338-1.014,0-1.014-.676a14.641,14.641,0,0,0-.338-1.69,37.254,37.254,0,0,1,.676-6.085c.338-2.028,1.014-4.395,1.352-6.761.676-2.366,1.352-5.409,2.366-8.79s1.69-7.1,2.7-11.494c1.352-5.747.676-9.466-1.69-11.494a11.445,11.445,0,0,0-2.7-1.014,6.914,6.914,0,0,0-3.719,0,7.706,7.706,0,0,0-3.719,1.014c-1.352.676-2.028,1.014-2.366,2.028L353.4,127.732c0,.338-.338.676-.676,1.014a4.667,4.667,0,0,1-1.014,1.352l-1.014,1.014c-.338.338-.676,0-1.014-.338a9.123,9.123,0,0,1-1.352-5.071,29.9,29.9,0,0,1,0-7.776c.338-2.7.676-5.747,1.014-8.452a57.3,57.3,0,0,1,1.69-8.114,19.312,19.312,0,0,1,2.028-5.071,4.085,4.085,0,0,1,5.409-2.028,18.755,18.755,0,0,1,2.7,2.028,12.141,12.141,0,0,1,2.366,3.381c.676.676,1.014,1.014,1.69.676A.836.836,0,0,0,365.572,99a9.356,9.356,0,0,0-1.352-2.366,10.925,10.925,0,0,0-4.057-3.719c-1.014-.676-2.7-1.014-4.733-1.69a9.546,9.546,0,0,0-6.085.676c-3.719,1.352-6.423,4.395-8.452,9.466a29.235,29.235,0,0,0-2.028,7.776,33.31,33.31,0,0,0-.676,5.747c-2.028,5.747-3.719,11.156-5.747,16.227-1.69,4.057-3.043,7.776-4.733,11.494a80.038,80.038,0,0,1-5.071,9.466c-1.69,2.366-3.381,4.395-5.071,5.409s-3.043.676-4.395-.676a4.667,4.667,0,0,1-1.014-1.352,30.138,30.138,0,0,1-1.69-3.381c-.676-1.69-1.352-3.719-2.366-6.423a91,91,0,0,1-3.043-10.818c-1.014-4.057-2.028-7.776-2.7-11.156A60.279,60.279,0,0,1,301,116.238a59.6,59.6,0,0,0,6.423-.676,54.039,54.039,0,0,0,7.1-1.69,17.161,17.161,0,0,0,6.085-3.043,7.3,7.3,0,0,0,3.043-4.733,3.048,3.048,0,0,0-.338-1.69c0-.676-.676-1.352-1.014-2.028a11.8,11.8,0,0,0-3.043-2.028,34.865,34.865,0,0,0-5.409-1.69,20.523,20.523,0,0,0-14.875,4.057,50.628,50.628,0,0,0-10.818,12.508c-.676,1.352-1.69,2.7-2.366,4.057s-1.352,2.366-2.028,3.719c-.338-6.761-.338-13.523-.338-20.284,0-6.423.338-13.185.676-19.946a16.379,16.379,0,0,0,5.747,0c2.028,0,4.395-.676,7.1-1.014a48.8,48.8,0,0,0,13.523-6.085A59.158,59.158,0,0,0,321.623,66.2a75.769,75.769,0,0,0,9.128-11.494,113.374,113.374,0,0,0,7.1-12.17,27.881,27.881,0,0,0,3.381-8.79,42.767,42.767,0,0,0,1.014-9.466,25.394,25.394,0,0,0-1.69-8.79,26.69,26.69,0,0,0-4.733-7.776A24.218,24.218,0,0,0,323.652.957a13.889,13.889,0,0,0-7.437,0,34.152,34.152,0,0,0-7.776,2.366,40.113,40.113,0,0,0-7.776,5.409,27.907,27.907,0,0,0-7.1,8.114c-5.071,6.761-9.128,15.551-12.17,26.031a176.066,176.066,0,0,0-6.423,41.244c-.338,5.747-.338,11.494-.338,17.579-1.014,3.043-2.366,6.423-3.719,10.142a113.744,113.744,0,0,1-6.423,12.846c-2.366,3.719-4.395,7.1-6.761,9.466s-4.057,3.043-6.085,2.366a1.18,1.18,0,0,1-.338-.676c-.338-.338-.338-1.352-.338-2.366V128.07a53.166,53.166,0,0,1,1.014-9.128c.338-2.028.676-4.395,1.014-6.761s.676-4.395,1.014-6.423.676-3.719,1.014-5.409a35.077,35.077,0,0,1,1.014-4.057c.676-3.043.338-5.071-1.014-6.423-1.014-2.7-1.69-3.043-2.7-3.043h-3.043a6.369,6.369,0,0,0-2.7.676,7.39,7.39,0,0,0-1.69,1.014A32.157,32.157,0,0,0,243.53,94.6v.338h-.338c-3.043.338-6.423.676-9.8,1.014l-10.142,2.028c-3.381,1.014-6.423,2.028-9.466,3.043a63.852,63.852,0,0,0-8.452,3.719c-.676-2.028-1.352-5.071-2.366-8.452s-1.69-7.1-2.7-10.818q-1.014-5.578-2.028-12.17a70.2,70.2,0,0,1-.338-11.832,31.861,31.861,0,0,1,2.366-10.142,15.64,15.64,0,0,1,6.085-7.1,10.906,10.906,0,0,1,6.085-2.028,11.945,11.945,0,0,1,5.747,1.352,17.768,17.768,0,0,1,4.733,3.719,44.046,44.046,0,0,1,3.381,5.071,24.855,24.855,0,0,1,2.366,7.1,14.427,14.427,0,0,1,0,5.409,11.4,11.4,0,0,1-1.352,4.057,19.394,19.394,0,0,0-1.352,2.366q-1.521,1.521,0,2.028h.676c.338-.338.676-.338.676-.676a18.934,18.934,0,0,0,3.381-9.8,24.494,24.494,0,0,0-2.366-11.156,25.715,25.715,0,0,0-6.761-8.452,27.948,27.948,0,0,0-9.8-5.409,22.511,22.511,0,0,0-10.48-1.352,13.09,13.09,0,0,0-9.128,4.395,28.465,28.465,0,0,0-7.1,11.156,39.081,39.081,0,0,0-2.366,12.508A86.585,86.585,0,0,0,183.692,77.7c.676,4.395,1.69,8.79,2.7,13.185s2.366,8.452,3.381,12.17a42.041,42.041,0,0,1,1.352,5.409,13.527,13.527,0,0,1-4.057,3.381c-2.7,1.69-5.409,3.043-8.114,4.395a287.4,287.4,0,0,0-32.792,19.27c-10.48,6.761-20.96,14.537-31.778,20.622-10.818,6.423-22.312,11.156-34.483,12.846A94.7,94.7,0,0,1,43.4,167.962,58.956,58.956,0,0,1,26.83,161.2c-5.071-3.043-9.128-7.776-12.508-12.847a39.247,39.247,0,0,1-4.395-7.437,37.418,37.418,0,0,1-2.366-8.79A27.63,27.63,0,0,1,7.222,123,9.358,9.358,0,0,1,8.236,118.6a9.213,9.213,0,0,1,2.028-4.057,6.427,6.427,0,0,0,1.69-4.395,5.793,5.793,0,0,0-6.423-5.409,5.793,5.793,0,0,0-5.409,6.423v2.7c.676,6.761,1.014,13.185,2.7,19.608A78.254,78.254,0,0,0,9.25,152.411c6.085,12.17,18.256,21.974,31.778,26.031a55.025,55.025,0,0,0,10.142,2.366,50.838,50.838,0,0,0,10.142,0,128.634,128.634,0,0,0,19.946-2.366,106.536,106.536,0,0,0,36.511-15.551c11.156-7.1,20.96-14.875,31.1-22.312,5.071-3.719,10.142-7.437,15.213-10.818a155.256,155.256,0,0,1,16.565-8.79,40.292,40.292,0,0,1,6.761-2.7,24.289,24.289,0,0,0-5.071,7.437c-1.352,3.719-1.69,6.761-1.014,9.466a8.62,8.62,0,0,0,2.7,4.057,8.077,8.077,0,0,0,4.733,1.69,16.927,16.927,0,0,0,8.452-2.366,17.541,17.541,0,0,0,6.423-5.409,22,22,0,0,0,3.043-11.832,87.736,87.736,0,0,0-1.014-13.523,68.6,68.6,0,0,1,8.79-3.719c3.043-1.352,6.423-2.028,9.8-3.043,3.381-.676,6.761-1.69,9.8-2.028a41.3,41.3,0,0,1,8.79-1.014,16.968,16.968,0,0,0-.676,4.057,56.13,56.13,0,0,0-1.014,7.437c-1.69,14.537-.676,23.665,2.7,27.721a10.273,10.273,0,0,0,2.366,1.69,9.871,9.871,0,0,0,3.043.676,10.906,10.906,0,0,0,6.085-2.028,23.164,23.164,0,0,0,5.747-5.747,61.885,61.885,0,0,0,5.071-8.452c1.69-3.043,3.043-6.085,4.733-9.128a82.572,82.572,0,0,0,3.381-8.114v4.733c.338,9.8,1.352,19.946,2.366,30.764,1.69,1.352,3.043,1.352,3.719.676a5.692,5.692,0,0,0,2.028-3.719,29.772,29.772,0,0,0,.676-5.747v-5.747c.676-1.69,1.69-3.381,2.7-5.409a54.69,54.69,0,0,1,3.381-6.085,38.76,38.76,0,0,1,10.48-11.494,18.332,18.332,0,0,1,3.719-2.028,21.867,21.867,0,0,1,4.395-1.352,8.117,8.117,0,0,1,4.057,0,3.34,3.34,0,0,1,2.366,2.366c.338,1.014,0,1.69-1.014,2.7a21.459,21.459,0,0,1-4.057,2.366c-1.69.676-3.719,1.352-5.747,2.028s-4.057,1.014-5.747,1.69c-1.69.338-3.381.676-4.733,1.014s-2.028.338-2.028,0c0,.338.338,1.352.676,2.7s.676,3.381,1.014,5.409a70.788,70.788,0,0,0,1.69,7.1l2.028,8.114a56.439,56.439,0,0,1,2.028,6.761,39.64,39.64,0,0,0,3.043,8.114,34.973,34.973,0,0,0,3.719,7.1,7.413,7.413,0,0,0,4.733,3.381h2.028a10.43,10.43,0,0,0,3.043-.338c2.366-1.014,4.395-3.043,6.761-6.085a80.71,80.71,0,0,0,6.761-11.156,131.408,131.408,0,0,0,5.747-13.861c1.352-3.719,2.366-7.1,3.719-10.48a14.377,14.377,0,0,0,.676,3.719,16.157,16.157,0,0,0,2.028,6.085,9.043,9.043,0,0,0,7.1,5.071h1.014a5.711,5.711,0,0,0,1.69-.676,8.963,8.963,0,0,0,2.028-1.69,12.106,12.106,0,0,0,2.028-3.719l11.832-25.693c.338-.338.676-.676,1.352-.338.676,0,1.352.338,1.352.676a1.242,1.242,0,0,1,.338,1.014c0,.676,0,1.014-.338,1.352l-.338,2.028c-.676,2.028-1.352,5.071-2.366,8.452a98.147,98.147,0,0,0-2.366,11.494,51.305,51.305,0,0,0-.676,13.861v2.028a7.7,7.7,0,0,0,4.395,5.747,8.078,8.078,0,0,0,2.366,1.014,6.558,6.558,0,0,0,5.409-1.69,15.012,15.012,0,0,0,2.7-3.719l1.69-3.381c2.028-4.395,4.057-8.79,6.423-12.846s4.733-8.452,7.776-12.17a133.2,133.2,0,0,1,41.244-37.863,84.176,84.176,0,0,1,54.429-9.8,106.433,106.433,0,0,1,14.2,3.043,92.623,92.623,0,0,1,13.523,5.071c4.395,2.028,8.79,4.057,12.846,6.423,4.395,2.028,8.452,5.071,9.466,12.17A6.428,6.428,0,0,0,542.042,99a5.03,5.03,0,0,0,7.1-1.69C552.184,93.925,551.508,90.545,549.142,89.192ZM288.155,52.343a137.792,137.792,0,0,1,8.452-26.031c5.071-11.494,11.832-18.594,19.946-21.974a15.813,15.813,0,0,1,10.142-1.352,16.663,16.663,0,0,1,8.114,4.733,24.069,24.069,0,0,1,3.719,5.747,26.859,26.859,0,0,1,2.028,7.437,42.725,42.725,0,0,1-.338,9.128,48.972,48.972,0,0,1-3.719,10.48,117.8,117.8,0,0,1-10.48,16.565,114.66,114.66,0,0,1-10.48,11.156,51.268,51.268,0,0,1-9.8,6.761,39.854,39.854,0,0,1-8.452,3.381c-4.395,1.014-8.452,1.69-12.17,1.352A121.4,121.4,0,0,1,288.155,52.343ZM192.82,134.831c-.676,2.028-1.352,3.043-2.7,3.381a5.819,5.819,0,0,1-4.057-.676,5.576,5.576,0,0,1-2.7-3.381c-.676-2.028-.338-4.057.338-6.423a20.346,20.346,0,0,1,4.395-7.1l4.395-4.395c0,1.014.338,2.7.676,5.071a49.927,49.927,0,0,1,.338,7.1A37.442,37.442,0,0,1,192.82,134.831Z" transform="translate(0 0)"/>
  </g>
</svg>
